<svg width="29" height="32" viewBox="0 0 29 32" fill="none" xmlns="http://www.w3.org/2000/svg">
<g clip-path="url(#clip0_626_70)">
<path d="M27.5093 27.0223C26.1573 27.0223 25.4814 26.2668 25.4814 24.7552V11.2748C25.4814 7.63933 24.4182 4.8511 22.2905 2.9108C20.1635 0.970489 17.1519 0 13.2557 0C9.5981 0 6.62627 0.857968 4.33954 2.5739C2.05411 4.28917 0.732139 6.67889 0.374268 9.74306H5.26453C5.58264 8.14969 6.42745 6.87312 7.79897 5.91335C9.17048 4.95358 10.9103 4.47336 13.0171 4.47336C15.4023 4.47336 17.2614 5.04534 18.5931 6.18929C19.9249 7.33325 20.5911 8.92662 20.5911 10.9687V12.7349L20.8329 26.8361C20.8825 28.3993 21.3173 29.5862 22.1412 30.3926C22.9763 31.2097 24.3673 31.6182 26.3157 31.6182H28.9994V27.0223H27.5086H27.5093Z" fill="white"/>
<path d="M18.786 22.3488C18.786 27.6788 14.5808 32.0001 9.39267 32.0001C4.2045 32.0001 0 27.6788 0 22.3488C0 17.0188 4.20516 12.6975 9.39332 12.6975C14.5815 12.6975 18.7866 17.0182 18.7866 22.3488" fill="#9FF818"/>
</g>
<defs>
<clipPath id="clip0_626_70">
<rect width="29" height="32" fill="white"/>
</clipPath>
</defs>
</svg>
