<svg width="21" height="32" viewBox="0 0 21 32" fill="none" xmlns="http://www.w3.org/2000/svg">
<g clip-path="url(#clip0_634_148)">
<path d="M15.0506 25.0282C15.0506 28.8788 11.6812 31.9999 7.5244 31.9999C3.36757 31.9999 0 28.8788 0 25.0282C0 21.1775 3.36934 18.0564 7.52617 18.0564C11.683 18.0564 15.0523 21.1775 15.0523 25.0282" fill="#03EFEF"/>
<path d="M20.9999 2.98837V30.9919H16.8413V24.6512C16.8413 20.0826 12.8437 16.3778 7.91004 16.3778H6.7651C4.73535 16.3778 3.07545 14.8402 3.07545 12.96V12.8354H16.8395V5.11613C16.8395 4.24732 16.0786 3.54244 15.1407 3.54244H3.30019C1.59252 3.54244 0.210449 2.26054 0.210449 0.680293V0H17.7756C19.5576 0 21.0016 1.33764 21.0016 2.98837H20.9999Z" fill="white"/>
</g>
<defs>
<clipPath id="clip0_634_148">
<rect width="21" height="32" fill="white"/>
</clipPath>
</defs>
</svg>
